<svg xmlns="http://www.w3.org/2000/svg" xmlns:xlink="http://www.w3.org/1999/xlink" width="100" zoomAndPan="magnify" viewBox="0 0 75 37.5" height="50" preserveAspectRatio="xMidYMid meet" version="1.0"><defs><filter x="0%" y="0%" width="100%" height="100%" id="8ab9c07c01"><feColorMatrix values="0 0 0 0 1 0 0 0 0 1 0 0 0 0 1 0 0 0 1 0" color-interpolation-filters="sRGB"/></filter><g/><clipPath id="2916747e7b"><path d="M 0.492188 8 L 65 8 L 65 28 L 0.492188 28 Z M 0.492188 8 " clip-rule="nonzero"/></clipPath><mask id="a8fee2b848"><g filter="url(#8ab9c07c01)"><rect x="-7.5" width="90" fill="#000000" y="-3.75" height="45" fill-opacity="0.95"/></g></mask><clipPath id="71a846cb04"><rect x="0" width="65" y="0" height="20"/></clipPath></defs><g clip-path="url(#2916747e7b)"><g mask="url(#a8fee2b848)"><g transform="matrix(1, 0, 0, 1, 0, 8)"><g clip-path="url(#71a846cb04)"><g fill="#5ce1e6" fill-opacity="1"><g transform="translate(1.344572, 15.314145)"><g><path d="M 3.8125 -8.105469 C 3.136719 -8.105469 2.460938 -8.039062 1.96875 -8.039062 C 1.519531 -8.039062 0.933594 -8.070312 0.597656 -8.105469 L 0.597656 -8.039062 C 1.203125 -7.9375 1.496094 -7.757812 1.527344 -7.105469 C 1.585938 -6.296875 1.585938 -5.304688 1.585938 -4.035156 C 1.585938 -2.699219 1.585938 -1.796875 1.527344 -0.988281 C 1.496094 -0.347656 1.226562 -0.15625 0.605469 -0.0546875 L 0.605469 0.0117188 C 0.957031 -0.0234375 1.71875 -0.0546875 2.25 -0.0546875 C 2.878906 -0.0546875 3.652344 0.0117188 4.148438 0.0117188 C 6.777344 0.0117188 8.375 -1.945312 8.375 -4.160156 C 8.375 -6.507812 6.578125 -8.105469 3.8125 -8.105469 Z M 4.238281 -0.40625 C 3.496094 -0.40625 2.742188 -0.574219 2.675781 -1.316406 C 2.628906 -1.945312 2.621094 -2.710938 2.621094 -3.992188 C 2.621094 -5.183594 2.628906 -6.058594 2.699219 -7.632812 C 3.058594 -7.679688 3.453125 -7.703125 3.734375 -7.703125 C 6.128906 -7.703125 7.21875 -5.878906 7.21875 -3.945312 C 7.21875 -2.023438 6.136719 -0.40625 4.238281 -0.40625 Z M 4.238281 -0.40625 "/></g></g></g><g fill="#5ce1e6" fill-opacity="1"><g transform="translate(10.325929, 15.314145)"><g><path d="M 3.652344 -8.027344 L 3.652344 -8.09375 C 3.082031 -8.050781 2.574219 -8.027344 2.125 -8.027344 C 1.664062 -8.027344 1.167969 -8.050781 0.597656 -8.09375 L 0.597656 -8.027344 C 1.203125 -7.925781 1.507812 -7.679688 1.539062 -7.070312 C 1.597656 -6.058594 1.609375 -5.195312 1.609375 -4.046875 C 1.609375 -2.902344 1.597656 -2.035156 1.539062 -1.023438 C 1.507812 -0.414062 1.203125 -0.167969 0.597656 -0.0664062 L 0.597656 0 C 1.167969 -0.046875 1.664062 -0.0664062 2.125 -0.0664062 C 2.574219 -0.0664062 3.082031 -0.046875 3.652344 0 L 3.652344 -0.0664062 C 3.035156 -0.167969 2.742188 -0.40625 2.710938 -1.011719 C 2.640625 -2.089844 2.640625 -2.832031 2.640625 -4.046875 C 2.640625 -5.261719 2.640625 -6.003906 2.710938 -7.082031 C 2.742188 -7.679688 3.035156 -7.925781 3.652344 -8.027344 Z M 3.652344 -8.027344 "/></g></g></g><g fill="#5ce1e6" fill-opacity="1"><g transform="translate(14.574932, 15.314145)"><g><path d="M 7.027344 -3.675781 C 6.542969 -3.675781 6.082031 -3.6875 5.476562 -3.742188 L 5.476562 -3.675781 C 6.128906 -3.585938 6.476562 -3.382812 6.53125 -2.777344 C 6.597656 -1.96875 6.621094 -1.5625 6.621094 -0.675781 C 6.183594 -0.4375 5.667969 -0.335938 5.136719 -0.335938 C 2.753906 -0.335938 1.765625 -2.316406 1.765625 -4.25 C 1.765625 -6.183594 2.902344 -7.757812 5.046875 -7.757812 C 6.160156 -7.757812 7.070312 -7.339844 7.410156 -6.105469 L 7.476562 -6.105469 C 7.421875 -6.632812 7.410156 -7.148438 7.476562 -7.691406 C 6.847656 -7.972656 6.015625 -8.183594 5.046875 -8.183594 C 2.417969 -8.183594 0.617188 -6.507812 0.617188 -4.046875 C 0.617188 -1.609375 2.304688 0.0898438 5.015625 0.0898438 C 6.058594 0.0898438 7.082031 -0.167969 7.679688 -0.414062 C 7.609375 -1.4375 7.621094 -1.933594 7.691406 -2.777344 C 7.746094 -3.382812 7.980469 -3.585938 8.523438 -3.675781 L 8.523438 -3.742188 C 7.992188 -3.6875 7.5 -3.675781 7.027344 -3.675781 Z M 7.027344 -3.675781 "/></g></g></g><g fill="#5ce1e6" fill-opacity="1"><g transform="translate(23.590011, 15.314145)"><g><path d="M 3.652344 -8.027344 L 3.652344 -8.09375 C 3.082031 -8.050781 2.574219 -8.027344 2.125 -8.027344 C 1.664062 -8.027344 1.167969 -8.050781 0.597656 -8.09375 L 0.597656 -8.027344 C 1.203125 -7.925781 1.507812 -7.679688 1.539062 -7.070312 C 1.597656 -6.058594 1.609375 -5.195312 1.609375 -4.046875 C 1.609375 -2.902344 1.597656 -2.035156 1.539062 -1.023438 C 1.507812 -0.414062 1.203125 -0.167969 0.597656 -0.0664062 L 0.597656 0 C 1.167969 -0.046875 1.664062 -0.0664062 2.125 -0.0664062 C 2.574219 -0.0664062 3.082031 -0.046875 3.652344 0 L 3.652344 -0.0664062 C 3.035156 -0.167969 2.742188 -0.40625 2.710938 -1.011719 C 2.640625 -2.089844 2.640625 -2.832031 2.640625 -4.046875 C 2.640625 -5.261719 2.640625 -6.003906 2.710938 -7.082031 C 2.742188 -7.679688 3.035156 -7.925781 3.652344 -8.027344 Z M 3.652344 -8.027344 "/></g></g></g><g fill="#5ce1e6" fill-opacity="1"><g transform="translate(27.839014, 15.314145)"><g><path d="M 10.117188 -0.945312 C 9.78125 -3.371094 9.523438 -5.722656 9.320312 -8.195312 L 9.296875 -8.195312 C 8.183594 -6.003906 7.039062 -3.902344 5.746094 -1.652344 C 4.328125 -4.003906 3.171875 -6.082031 2.046875 -8.195312 L 2.023438 -8.195312 C 1.832031 -5.8125 1.574219 -3.363281 1.226562 -0.988281 C 1.136719 -0.324219 0.886719 -0.144531 0.246094 -0.0546875 L 0.246094 0.0117188 C 0.785156 -0.0351562 1.089844 -0.046875 1.496094 -0.046875 C 1.910156 -0.046875 2.148438 -0.0351562 2.699219 0.0117188 L 2.699219 -0.0546875 C 2.046875 -0.167969 1.820312 -0.324219 1.878906 -0.988281 C 1.988281 -2.496094 2.136719 -3.921875 2.339844 -5.464844 C 3.429688 -3.609375 4.472656 -1.730469 5.429688 0.101562 L 5.453125 0.101562 C 6.410156 -1.765625 7.398438 -3.609375 8.453125 -5.496094 C 8.65625 -3.992188 8.8125 -2.496094 8.914062 -0.957031 C 8.960938 -0.316406 8.632812 -0.144531 8.0625 -0.0546875 L 8.0625 0.0117188 C 8.625 -0.0351562 9.128906 -0.046875 9.566406 -0.046875 C 10.085938 -0.046875 10.566406 -0.0351562 11.128906 0.0117188 L 11.128906 -0.0546875 C 10.523438 -0.15625 10.195312 -0.324219 10.117188 -0.945312 Z M 10.117188 -0.945312 "/></g></g></g><g fill="#5ce1e6" fill-opacity="1"><g transform="translate(39.214652, 15.314145)"><g><path d="M 7.320312 -1.023438 C 5.890625 -4.113281 5.226562 -5.542969 4.070312 -8.183594 L 4.046875 -8.183594 C 3.453125 -6.632812 1.898438 -2.933594 1.066406 -1.046875 C 0.777344 -0.371094 0.425781 -0.113281 0.0664062 -0.0546875 L 0.0664062 0.0117188 C 0.382812 -0.0234375 0.785156 -0.0546875 1.226562 -0.0546875 C 1.5625 -0.0546875 2.046875 -0.0234375 2.441406 0.0117188 L 2.441406 -0.0546875 C 1.707031 -0.125 1.507812 -0.382812 1.753906 -1.035156 C 1.933594 -1.527344 2.125 -2.035156 2.316406 -2.539062 C 2.753906 -2.5625 3.339844 -2.574219 3.890625 -2.574219 C 4.441406 -2.574219 4.980469 -2.5625 5.429688 -2.539062 C 5.6875 -1.945312 5.914062 -1.417969 6.058594 -1.035156 C 6.308594 -0.382812 5.980469 -0.125 5.273438 -0.0546875 L 5.273438 0.0117188 C 5.824219 -0.046875 6.488281 -0.0546875 6.914062 -0.0546875 C 7.375 -0.0546875 7.992188 -0.0351562 8.375 0.0117188 L 8.375 -0.0546875 C 7.847656 -0.144531 7.609375 -0.394531 7.320312 -1.023438 Z M 3.878906 -3 C 3.460938 -3 2.910156 -3.023438 2.519531 -3.058594 C 2.945312 -4.148438 3.371094 -5.238281 3.777344 -6.226562 C 4.160156 -5.394531 4.722656 -4.160156 5.214844 -3.046875 C 4.789062 -3.023438 4.316406 -3 3.878906 -3 Z M 3.878906 -3 "/></g></g></g><g fill="#5ce1e6" fill-opacity="1"><g transform="translate(47.65645, 15.314145)"><g><path d="M 4.902344 -3.765625 C 5.6875 -4.195312 6.128906 -5.003906 6.128906 -5.867188 C 6.128906 -7.128906 5.214844 -8.082031 3.472656 -8.082031 C 3.058594 -8.082031 2.550781 -8.039062 2.046875 -8.039062 C 1.585938 -8.039062 1.15625 -8.0625 0.605469 -8.105469 L 0.605469 -8.039062 C 1.214844 -7.949219 1.507812 -7.769531 1.550781 -7.148438 C 1.609375 -6.261719 1.609375 -4.8125 1.609375 -4.046875 C 1.609375 -2.902344 1.597656 -2.011719 1.539062 -1 C 1.507812 -0.394531 1.203125 -0.15625 0.597656 -0.0546875 L 0.597656 0.0117188 C 1.167969 -0.0351562 1.664062 -0.0546875 2.125 -0.0546875 C 2.574219 -0.0546875 3.082031 -0.0351562 3.652344 0.0117188 L 3.652344 -0.0546875 C 3.035156 -0.167969 2.742188 -0.394531 2.710938 -1 C 2.652344 -1.890625 2.640625 -2.5625 2.640625 -3.460938 C 2.878906 -3.441406 3.191406 -3.417969 3.460938 -3.417969 C 3.597656 -3.417969 3.722656 -3.429688 3.84375 -3.441406 C 5.667969 -0.742188 5.160156 0 8.320312 0 L 8.320312 -0.0664062 C 7.050781 -0.0898438 6.375 -1.316406 4.902344 -3.765625 Z M 3.339844 -3.765625 C 3.058594 -3.765625 2.832031 -3.800781 2.640625 -3.832031 L 2.640625 -4.046875 C 2.640625 -5.183594 2.640625 -5.96875 2.710938 -7.609375 C 2.921875 -7.632812 3.125 -7.65625 3.339844 -7.65625 C 4.574219 -7.65625 5.070312 -6.679688 5.070312 -5.699219 C 5.070312 -4.925781 4.753906 -3.765625 3.339844 -3.765625 Z M 3.339844 -3.765625 "/></g></g></g><g fill="#5ce1e6" fill-opacity="1"><g transform="translate(55.727312, 15.314145)"><g><path d="M 7.621094 -8.410156 C 7.566406 -8.207031 7.464844 -8.171875 7.25 -8.152344 C 6.847656 -8.09375 4.835938 -8.0625 4.035156 -8.0625 C 3.238281 -8.0625 1.4375 -8.09375 1.078125 -8.140625 C 0.945312 -8.152344 0.886719 -8.171875 0.898438 -8.433594 L 0.832031 -8.433594 C 0.753906 -7.890625 0.597656 -7.09375 0.460938 -6.699219 L 0.527344 -6.6875 C 0.707031 -7.171875 0.84375 -7.488281 1.382812 -7.554688 C 1.820312 -7.601562 2.730469 -7.644531 3.484375 -7.65625 C 3.53125 -6.566406 3.542969 -5.273438 3.542969 -4.011719 C 3.542969 -2.867188 3.542969 -1.980469 3.484375 -0.96875 C 3.453125 -0.347656 3.148438 -0.125 2.539062 -0.0234375 L 2.539062 0.046875 C 3.113281 0 3.609375 -0.0234375 4.058594 -0.0234375 C 4.519531 -0.0234375 5.015625 0 5.585938 0.046875 L 5.585938 -0.0234375 C 4.96875 -0.125 4.675781 -0.347656 4.644531 -0.957031 C 4.585938 -2.035156 4.574219 -2.789062 4.574219 -4.011719 C 4.574219 -5.363281 4.585938 -6.597656 4.632812 -7.65625 C 5.394531 -7.644531 6.316406 -7.609375 6.757812 -7.554688 C 7.273438 -7.5 7.339844 -7.21875 7.296875 -6.746094 L 7.363281 -6.746094 C 7.410156 -7.160156 7.53125 -7.835938 7.691406 -8.410156 Z M 7.621094 -8.410156 "/></g></g></g></g></g></g></g><g fill="#5ce1e6" fill-opacity="1"><g transform="translate(62.695805, 24.054276)"><g><path d="M 1.1875 -11.84375 L 3.390625 -11.84375 L 5.3125 -7.40625 L 5.3125 -3.734375 L 3.609375 0 L 1.375 0 L 4.390625 -5.75 Z M 10.109375 -11.84375 L 6.90625 -5.75 L 9.90625 0 L 7.6875 0 L 5.984375 -4.0625 L 5.984375 -7.734375 L 7.90625 -11.84375 Z M 10.109375 -11.84375 "/></g></g></g></svg>